# File produced by Open Asset Import Library (http://www.assimp.sf.net)
# (assimp v3.1.113183908)

mtllib ceiling%20corner.mtl

# vertex positions
v 7.166772 -0.100000 -7.985065
v 7.166772 -0.722347 -7.985065
v 7.166772 -0.722347 -4.185064
v 7.166772 -0.100000 -4.185064
v 3.166772 -0.100000 -8.185064
v 3.166772 -0.722347 -8.185064
v 6.966772 -0.722347 -8.185064
v 6.966772 -0.100000 -8.185064
v 7.108194 -0.029289 -7.985065
v 7.082242 -0.042265 -8.100534
v 7.108194 -0.100000 -8.126486
v 6.966772 0.000000 -7.985065
v 6.966772 -0.029289 -8.126486
v 6.966772 0.000000 -4.185064
v 7.108194 -0.029289 -4.185064
v 3.166772 0.000000 -7.985065
v 3.166772 -0.029289 -8.126486
v 7.108194 -0.722347 -8.126486
v 3.166772 0.000000 -4.185064

# UV coordinates
vt 0.267461 0.679540
vt 0.040333 0.711038
vt 0.000100 0.016446
vt 0.227614 0.003268
vt 0.992660 0.768434
vt 0.978578 0.999900
vt 0.282948 0.951558
vt 0.315848 0.727996
vt 0.294262 0.675962
vt 0.296567 0.698859
vt 0.273991 0.707482
vt 0.320908 0.674483
vt 0.319454 0.701149
vt 0.287962 0.721403
vt 0.283876 0.000100
vt 0.255943 0.001651
vt 0.995893 0.712117
vt 0.994286 0.740467
vt 0.255140 0.947522
vt 0.044314 0.739845
vt 0.995893 0.000100

# vertex normals
vn -1.000000 0.000000 0.000000
vn 0.000000 0.000000 1.000000
vn -0.773853 -0.566500 0.283249
vn -0.177175 -0.968100 0.177175
vn -0.283250 -0.566500 0.773852
vn -0.202803 -0.979220 0.000000
vn -0.770076 -0.637952 0.000000
vn 0.000000 -0.979220 0.202803
vn 0.000000 -0.637951 0.770077
vn -0.382683 0.000000 0.923880
vn -0.923880 0.000000 0.382683
vn 0.000000 -1.000000 0.000000

# Mesh
g Plane.003
usemtl DefaultMaterial
f 4/4/1 1/1/1 2/2/1
f 2/2/1 3/3/1 4/4/1
f 8/8/2 5/5/2 6/6/2
f 6/6/2 7/7/2 8/8/2
f 11/11/3 1/1/3 9/9/3
f 9/9/3 10/10/3 11/11/3
f 9/9/4 12/12/4 13/13/4
f 13/13/4 10/10/4 9/9/4
f 13/13/5 8/8/5 11/14/5
f 11/14/5 10/10/5 13/13/5
f 15/16/6 14/15/6 12/12/6
f 12/12/6 9/9/6 15/16/6
f 4/4/7 15/16/7 9/9/7
f 9/9/7 1/1/7 4/4/7
f 13/13/8 12/12/8 16/17/8
f 16/17/8 17/18/8 13/13/8
f 8/8/9 13/13/9 17/18/9
f 17/18/9 5/5/9 8/8/9
f 11/14/10 8/8/10 7/7/10
f 7/7/10 18/19/10 11/14/10
f 1/1/11 11/11/11 18/20/11
f 18/20/11 2/2/11 1/1/11
f 14/15/12 19/21/12 16/17/12
f 16/17/12 12/12/12 14/15/12
