# File produced by Open Asset Import Library (http://www.assimp.sf.net)
# (assimp v3.1.113183908)

mtllib deur.mtl

# vertex positions
v -0.038649 1.636272 -0.146535
v -0.025858 1.636272 -0.146535
v -0.025858 1.636272 -1.182500
v -0.038649 1.636272 -1.182500
v -0.023245 0.172225 -0.014518
v -0.023245 1.423012 -0.014518
v -0.073245 1.423012 -0.014518
v -0.073245 0.172225 -0.014518
v -0.073245 0.172225 -1.314517
v -0.023245 0.172225 -1.314517
v -0.073245 1.423012 -1.314517
v -0.073245 2.272225 -1.314517
v -0.023245 2.272225 -1.314517
v -0.023245 1.423012 -1.314517
v -0.023245 2.272225 -0.014518
v -0.073245 2.272225 -0.014518
v -0.023245 2.114094 -0.112408
v -0.023245 2.114094 -1.216627
v -0.023245 1.581144 -1.216627
v -0.023245 1.581144 -0.112408
v -0.038649 2.058966 -1.182500
v -0.038649 2.058966 -0.146535
v -0.025858 2.058966 -1.182500
v -0.025858 2.058966 -0.146535
v 0.015886 1.424235 -1.165173
v 0.015886 1.115554 -1.165173
v -0.002574 1.132347 -1.165173
v -0.002574 1.407443 -1.165173
v -0.002574 1.085382 -1.165173
v -0.023245 1.085382 -1.165173
v -0.023245 1.115554 -1.165173
v -0.019366 1.115554 -1.165173
v -0.002574 1.407443 -1.200525
v -0.002574 1.132347 -1.200525
v 0.015886 1.115554 -1.200525
v 0.015886 1.424235 -1.200541
v 0.015886 1.435947 -1.165173
v -0.003852 1.413869 -1.165173
v 0.015886 1.103842 -1.200525
v 0.015886 1.103842 -1.165173
v -0.002574 1.454407 -1.165173
v 0.006656 1.451934 -1.165173
v -0.012940 1.422956 -1.165173
v -0.019366 1.424235 -1.165173
v -0.019366 1.424235 -1.200525
v -0.023245 1.424235 -1.200525
v -0.023245 1.424235 -1.165173
v -0.002574 1.454407 -1.200525
v -0.023245 1.454407 -1.200525
v -0.023245 1.454407 -1.165173
v -0.023245 1.115554 -1.200525
v -0.019366 1.115554 -1.200525
v -0.003852 1.125921 -1.200525
v -0.002574 1.085382 -1.200525
v -0.023245 1.085382 -1.200525
v -0.003852 1.125921 -1.165173
v 0.006656 1.451934 -1.200525
v 0.013413 1.445177 -1.200525
v 0.013413 1.445177 -1.165173
v 0.015886 1.435947 -1.200525
v 0.013413 1.094612 -1.200525
v 0.013413 1.094612 -1.165173
v 0.006656 1.087855 -1.200525
v 0.006656 1.087855 -1.165173
v -0.003852 1.413869 -1.200525
v -0.007492 1.419316 -1.165173
v -0.012940 1.116833 -1.200525
v -0.007492 1.120473 -1.200525
v -0.012940 1.422956 -1.200525
v -0.007492 1.419316 -1.200525
v -0.007492 1.120473 -1.165173
v -0.012940 1.116833 -1.165173
v -0.057840 1.636272 -0.146535
v -0.057840 1.636272 -1.182500
v -0.057840 2.058966 -1.182500
v -0.057840 2.058966 -0.146535
v -0.112375 1.424235 -1.165173
v -0.093915 1.407443 -1.165173
v -0.093915 1.132347 -1.165173
v -0.112375 1.115554 -1.165173
v -0.093915 1.085382 -1.165173
v -0.077123 1.115554 -1.165173
v -0.073245 1.115554 -1.165173
v -0.073245 1.085382 -1.165173
v -0.112375 1.435947 -1.165173
v -0.092637 1.413869 -1.165173
v -0.112375 1.115554 -1.200525
v -0.112375 1.103842 -1.165173
v -0.112375 1.103842 -1.200525
v -0.093915 1.454407 -1.165173
v -0.077123 1.424235 -1.165173
v -0.083549 1.422956 -1.165173
v -0.103145 1.451934 -1.165173
v -0.073245 1.424235 -1.165173
v -0.073245 1.424235 -1.200525
v -0.077123 1.424235 -1.200525
v -0.093915 1.407443 -1.200525
v -0.093915 1.132347 -1.200525
v -0.073245 1.454407 -1.200525
v -0.093915 1.454407 -1.200525
v -0.073245 1.454407 -1.165173
v -0.112375 1.424235 -1.200541
v -0.077123 1.115554 -1.200525
v -0.073245 1.115554 -1.200525
v -0.092637 1.125921 -1.200525
v -0.093915 1.085382 -1.200525
v -0.073245 1.085382 -1.200525
v -0.092637 1.125921 -1.165173
v -0.103145 1.451934 -1.200525
v -0.109902 1.445177 -1.165173
v -0.109902 1.445177 -1.200525
v -0.112375 1.435947 -1.200525
v -0.109902 1.094612 -1.165173
v -0.109902 1.094612 -1.200525
v -0.103145 1.087855 -1.165173
v -0.103145 1.087855 -1.200525
v -0.092637 1.413869 -1.200525
v -0.088997 1.419316 -1.165173
v -0.083549 1.116833 -1.200525
v -0.088997 1.120473 -1.200525
v -0.083549 1.422956 -1.200525
v -0.088997 1.419316 -1.200525
v -0.088997 1.120473 -1.165173
v -0.083549 1.116833 -1.165173
v -0.013080 1.581144 -1.216627
v -0.013080 1.581144 -0.112408
v -0.013080 2.114094 -1.216627
v -0.013080 2.114094 -0.112408
v -0.070631 1.636272 -1.182500
v -0.070631 1.636272 -0.146535
v -0.073245 2.114094 -0.112408
v -0.073245 2.114094 -1.216627
v -0.073245 1.581144 -1.216627
v -0.073245 1.581144 -0.112408
v -0.070631 2.058966 -1.182500
v -0.070631 2.058966 -0.146535
v -0.083409 1.581144 -0.112408
v -0.083409 1.581144 -1.216627
v -0.083409 2.114094 -1.216627
v -0.083409 2.114094 -0.112408

# UV coordinates
vt 0.870633 0.529498
vt 0.873847 0.527249
vt 0.874410 0.719104
vt 0.871210 0.715975
vt 0.960671 0.489212
vt 0.960671 0.719266
vt 0.951475 0.719266
vt 0.951475 0.489212
vt 0.950819 0.489212
vt 0.950819 0.728317
vt 0.941623 0.728317
vt 0.941623 0.489212
vt 0.619796 0.248630
vt 0.463602 0.248630
vt 0.463602 0.239434
vt 0.619796 0.239434
vt 0.849850 0.239434
vt 0.619796 0.000328
vt 0.849850 0.000328
vt 0.960671 0.875460
vt 0.951475 0.875460
vt 0.649536 0.746400
vt 0.649536 0.949496
vt 0.620451 0.967501
vt 0.620451 0.728395
vt 0.747560 0.949496
vt 0.776645 0.967501
vt 0.747560 0.746400
vt 0.776645 0.728395
vt 0.191526 0.818425
vt 0.191526 0.740680
vt 0.382069 0.740680
vt 0.382069 0.818425
vt 0.871185 0.716044
vt 0.791072 0.717974
vt 0.793776 0.716036
vt 0.794624 0.533263
vt 0.791477 0.530093
vt 0.870614 0.529440
vt 0.436828 0.858524
vt 0.436828 0.801749
vt 0.440224 0.804838
vt 0.440224 0.855435
vt 0.440224 0.796200
vt 0.444026 0.796200
vt 0.444026 0.801749
vt 0.443312 0.801749
vt 0.432777 0.855435
vt 0.432778 0.804838
vt 0.436173 0.801749
vt 0.436173 0.858524
vt 0.436828 0.860678
vt 0.440459 0.856617
vt 0.421818 0.807428
vt 0.421818 0.805274
vt 0.428320 0.805274
vt 0.428320 0.807428
vt 0.440224 0.864073
vt 0.438526 0.863618
vt 0.442130 0.858289
vt 0.443312 0.858524
vt 0.148745 0.880032
vt 0.155247 0.880032
vt 0.155247 0.880746
vt 0.148745 0.880746
vt 0.148745 0.875212
vt 0.148745 0.824614
vt 0.155247 0.824614
vt 0.155247 0.875212
vt 0.429689 0.858524
vt 0.432777 0.864073
vt 0.428976 0.864073
vt 0.428976 0.858524
vt 0.421818 0.871630
vt 0.428320 0.871630
vt 0.428320 0.875432
vt 0.421818 0.875432
vt 0.421815 0.864203
vt 0.428320 0.864203
vt 0.148745 0.819794
vt 0.148745 0.819080
vt 0.155247 0.819080
vt 0.155247 0.819794
vt 0.432543 0.803656
vt 0.436173 0.799595
vt 0.421818 0.800002
vt 0.421818 0.796200
vt 0.428320 0.796200
vt 0.428320 0.800002
vt 0.432778 0.796200
vt 0.429689 0.801749
vt 0.428976 0.801749
vt 0.428976 0.796200
vt 0.436828 0.799595
vt 0.440459 0.803656
vt 0.421818 0.869873
vt 0.428320 0.869873
vt 0.421818 0.868115
vt 0.428320 0.868115
vt 0.421818 0.866358
vt 0.428320 0.866358
vt 0.421818 0.803517
vt 0.428320 0.803517
vt 0.421818 0.801759
vt 0.428320 0.801759
vt 0.436173 0.860678
vt 0.432542 0.856617
vt 0.437283 0.862376
vt 0.441128 0.857619
vt 0.434475 0.796655
vt 0.430871 0.801984
vt 0.431873 0.802654
vt 0.435718 0.797897
vt 0.148745 0.878827
vt 0.155247 0.878827
vt 0.148745 0.877622
vt 0.155247 0.877622
vt 0.148745 0.876417
vt 0.155247 0.876417
vt 0.148745 0.823409
vt 0.155247 0.823409
vt 0.148745 0.822204
vt 0.155247 0.822204
vt 0.148745 0.820999
vt 0.155247 0.820999
vt 0.444026 0.858524
vt 0.444026 0.864073
vt 0.435718 0.862375
vt 0.431873 0.857619
vt 0.430871 0.858289
vt 0.434475 0.863618
vt 0.437283 0.797897
vt 0.441128 0.802654
vt 0.442130 0.801984
vt 0.438526 0.796655
vt 0.620655 0.488392
vt 0.659973 0.512848
vt 0.660007 0.703287
vt 0.620658 0.727732
vt 0.849851 0.248630
vt 0.849851 0.487736
vt 0.619796 0.487736
vt 0.737742 0.703271
vt 0.777052 0.727739
vt 0.777052 0.488432
vt 0.737711 0.512891
vt 0.463602 0.488392
vt 0.502920 0.512848
vt 0.502954 0.703287
vt 0.463605 0.727732
vt 0.000328 0.740680
vt 0.190870 0.740680
vt 0.190870 0.818425
vt 0.000328 0.818425
vt 0.085765 0.826278
vt 0.088854 0.822883
vt 0.139451 0.822882
vt 0.142539 0.826278
vt 0.148089 0.822882
vt 0.142539 0.819794
vt 0.142539 0.819080
vt 0.148089 0.819080
vt 0.083611 0.826278
vt 0.087672 0.822647
vt 0.068331 0.825583
vt 0.068331 0.819080
vt 0.070486 0.819080
vt 0.070486 0.825583
vt 0.080216 0.822883
vt 0.085765 0.819794
vt 0.086000 0.820976
vt 0.080670 0.824580
vt 0.162405 0.880032
vt 0.162405 0.880746
vt 0.155903 0.880746
vt 0.155903 0.880032
vt 0.162405 0.875212
vt 0.155903 0.875212
vt 0.155902 0.824614
vt 0.162405 0.824614
vt 0.449956 0.801749
vt 0.449242 0.801749
vt 0.449242 0.796200
vt 0.453044 0.796200
vt 0.004130 0.825583
vt 0.000328 0.825583
vt 0.000328 0.819080
vt 0.004130 0.819080
vt 0.011557 0.825586
vt 0.011557 0.819080
vt 0.162405 0.819794
vt 0.155902 0.819794
vt 0.155902 0.819080
vt 0.162405 0.819080
vt 0.452809 0.856617
vt 0.453044 0.855435
vt 0.456440 0.858524
vt 0.456440 0.860678
vt 0.075758 0.825583
vt 0.075758 0.819080
vt 0.079560 0.819081
vt 0.079560 0.825583
vt 0.453044 0.864073
vt 0.449242 0.864073
vt 0.449242 0.858524
vt 0.449956 0.858524
vt 0.144694 0.826278
vt 0.140633 0.822647
vt 0.005887 0.819080
vt 0.005887 0.825583
vt 0.007645 0.819080
vt 0.007645 0.825583
vt 0.009402 0.819080
vt 0.009402 0.825583
vt 0.072243 0.819080
vt 0.072243 0.825583
vt 0.074001 0.819080
vt 0.074001 0.825583
vt 0.456440 0.799595
vt 0.456440 0.801749
vt 0.453044 0.804838
vt 0.452809 0.803656
vt 0.086670 0.821978
vt 0.081913 0.825823
vt 0.451138 0.858289
vt 0.454742 0.863618
vt 0.452140 0.857619
vt 0.455985 0.862376
vt 0.155903 0.878827
vt 0.162405 0.878827
vt 0.155903 0.877622
vt 0.162405 0.877622
vt 0.155903 0.876417
vt 0.162405 0.876417
vt 0.155902 0.823409
vt 0.162405 0.823409
vt 0.155902 0.822204
vt 0.162405 0.822204
vt 0.155902 0.820999
vt 0.162405 0.820999
vt 0.080216 0.819081
vt 0.085765 0.819081
vt 0.455985 0.797897
vt 0.452140 0.802654
vt 0.451138 0.801984
vt 0.454742 0.796655
vt 0.146391 0.825823
vt 0.141635 0.821978
vt 0.142304 0.820976
vt 0.147634 0.824580
vt 0.887344 0.520890
vt 0.887344 0.725768
vt 0.883768 0.725783
vt 0.883768 0.520905
vt 0.883731 0.727739
vt 0.781160 0.725800
vt 0.781197 0.723843
vt 0.782274 0.523946
vt 0.777708 0.723839
vt 0.778785 0.523942
vt 0.782216 0.522011
vt 0.883710 0.518969
vt 0.794668 0.923259
vt 0.790378 0.926646
vt 0.797330 0.737738
vt 0.799865 0.740836
vt 0.590711 0.746400
vt 0.619796 0.728395
vt 0.619796 0.967501
vt 0.590711 0.949496
vt 0.463602 0.967501
vt 0.492687 0.949496
vt 0.492687 0.746400
vt 0.463602 0.728395
vt 0.876704 0.926126
vt 0.794694 0.923342
vt 0.873942 0.924095
vt 0.799914 0.740807
vt 0.877549 0.736758
vt 0.874344 0.738833
vt 0.619999 0.727739
vt 0.580689 0.703271
vt 0.580658 0.512891
vt 0.619999 0.488432
vt 0.794570 0.533299
vt 0.793761 0.715987
vt 0.784191 0.731818
vt 0.787706 0.731953
vt 0.780815 0.933348
vt 0.777301 0.933213
vt 0.780837 0.935368
vt 0.886713 0.932214
vt 0.886734 0.934234
vt 0.886713 0.730283
vt 0.890237 0.932229
vt 0.890237 0.730298
vt 0.886681 0.728395
vt 0.787674 0.730064
vt 0.874361 0.738889
vt 0.873959 0.924044

# vertex normals
vn 0.000000 1.000000 0.000000
vn 0.000000 0.000000 1.000000
vn 0.000000 -1.000000 0.000000
vn 0.000000 0.000000 -1.000000
vn 1.000000 0.000000 0.000000
vn 1.000000 0.000000 0.000000
vn 0.000000 -0.000001 -1.000000
vn 0.000449 0.000029 1.000000
vn 0.000000 0.000004 -1.000000
vn -1.000000 0.000000 0.000000
vn 0.000000 -0.000004 -1.000000
vn 0.000000 -0.000005 1.000000
vn 0.000000 0.000001 1.000000
vn 0.000000 -0.000005 -1.000000
vn -0.258818 -0.965926 0.000000
vn -0.707107 -0.707106 0.000000
vn -0.965926 -0.258818 0.000000
vn -0.965926 0.258818 0.000000
vn -0.707106 0.707107 0.000000
vn -0.258818 0.965926 0.000000
vn 0.001272 -0.000823 0.999999
vn 0.000000 0.000001 -1.000000
vn 0.000000 -0.000003 1.000000
vn 0.000000 0.000004 1.000000
vn 0.195092 0.980785 0.000000
vn 0.555572 0.831469 0.000000
vn 0.831469 0.555571 0.000000
vn 0.980785 0.195091 0.000000
vn 0.980785 -0.195090 0.000000
vn 0.831470 -0.555570 0.000000
vn 0.555570 -0.831470 0.000000
vn 0.195090 -0.980785 0.000000
vn 0.000000 0.000001 -1.000000
vn 0.000000 -0.000002 -1.000000
vn 0.000000 -0.000004 1.000000
vn 0.000000 0.000002 1.000000
vn 0.000000 0.000004 1.000000
vn 0.000000 0.000001 1.000000
vn 0.000000 -0.000001 -1.000000
vn 0.000000 0.000004 -1.000000
vn -0.997401 0.072047 0.000000
vn -0.993261 0.000000 0.115901
vn -0.993261 0.000000 -0.115901
vn 0.997401 -0.072047 0.000000
vn 0.000000 0.000005 -1.000000
vn 0.000000 -0.000004 -1.000000
vn 0.000000 -0.000004 -1.000000
vn 0.258818 -0.965926 0.000000
vn 0.707107 -0.707106 0.000000
vn 0.965926 -0.258818 0.000000
vn 0.965926 0.258818 0.000000
vn 0.707106 0.707107 0.000000
vn 0.258818 0.965926 0.000000
vn -0.001272 -0.000825 0.999999
vn 0.000000 -0.000004 1.000000
vn 0.000000 0.000004 1.000000
vn -0.195092 0.980785 0.000000
vn -0.555572 0.831469 0.000000
vn -0.831469 0.555571 0.000000
vn -0.980785 0.195091 0.000000
vn -0.980785 -0.195090 0.000000
vn -0.831470 -0.555570 0.000000
vn -0.555570 -0.831470 0.000000
vn -0.195090 -0.980785 0.000000
vn 0.000000 -0.000003 1.000000
vn 0.000000 0.000004 1.000000
vn 0.000000 0.000002 -1.000000
vn 0.974172 0.225807 0.000000
vn 0.936503 0.000000 -0.350661
vn 0.936503 0.000000 0.350661
vn 0.974172 -0.225807 0.000000
vn -1.000000 0.000000 0.000000
vn -0.997401 -0.072047 0.000000
vn -0.000449 0.000029 1.000000
vn 0.997401 0.072047 0.000000
vn 0.993261 0.000000 0.115901
vn 0.993261 0.000000 -0.115901
vn -0.974172 0.225807 0.000000
vn -0.936503 0.000000 -0.350661
vn -0.936503 0.000000 0.350661
vn -0.974172 -0.225807 0.000000

# Mesh
g Cube
usemtl DefaultMaterial
f 4/4/1 1/1/1 2/2/1
f 2/2/1 3/3/1 4/4/1
f 8/8/2 5/5/2 6/6/2
f 6/6/2 7/7/2 8/8/2
f 5/12/3 8/9/3 9/10/3
f 9/10/3 10/11/3 5/12/3
f 14/16/4 11/13/4 12/14/4
f 12/14/4 13/15/4 14/16/4
f 5/19/5 10/17/5 14/16/5
f 14/16/5 6/18/5 5/19/5
f 16/21/2 7/7/2 6/6/2
f 6/6/2 15/20/2 16/21/2
f 15/25/5 17/22/5 18/23/5
f 18/23/5 13/24/5 15/25/5
f 13/24/5 18/23/5 19/26/6
f 19/26/6 14/27/6 13/24/5
f 6/29/5 20/28/5 17/22/5
f 17/22/5 15/25/5 6/29/5
f 14/27/6 19/26/6 20/28/5
f 20/28/5 6/29/5 14/27/6
f 1/33/5 4/30/5 21/31/5
f 21/31/5 22/32/5 1/33/5
f 21/36/2 4/34/2 3/3/2
f 3/3/2 23/35/2 21/36/2
f 1/39/4 22/37/4 24/38/4
f 24/38/4 2/2/4 1/39/4
f 28/43/4 25/40/4 26/41/4
f 26/41/4 27/42/4 28/43/4
f 32/47/7 29/44/7 30/45/7
f 30/45/7 31/46/7 32/47/7
f 36/51/8 33/48/8 34/49/8
f 34/49/8 35/50/8 36/51/8
f 38/53/9 37/52/9 25/40/9
f 25/40/9 28/43/9 38/53/9
f 26/57/10 35/54/10 39/55/10
f 39/55/10 40/56/10 26/57/10
f 44/61/11 41/58/11 42/59/11
f 42/59/11 43/60/11 44/61/11
f 47/65/1 44/62/1 45/63/1
f 45/63/1 46/64/1 47/65/1
f 33/69/5 28/66/5 27/67/5
f 27/67/5 34/68/5 33/69/5
f 46/73/2 45/70/2 48/71/2
f 48/71/2 49/72/2 46/73/2
f 49/77/3 48/74/3 41/75/3
f 41/75/3 50/76/3 49/77/3
f 25/79/10 36/78/10 35/54/10
f 35/54/10 26/57/10 25/79/10
f 52/83/3 32/80/3 31/81/3
f 31/81/3 51/82/3 52/83/3
f 34/49/12 53/84/12 39/85/12
f 39/85/12 35/50/12 34/49/12
f 29/89/1 54/86/1 55/87/1
f 55/87/1 30/88/1 29/89/1
f 55/93/13 54/90/13 52/91/13
f 52/91/13 51/92/13 55/93/13
f 26/41/14 40/94/14 56/95/14
f 56/95/14 27/42/14 26/41/14
f 42/97/15 41/75/15 48/74/15
f 48/74/15 57/96/15 42/97/15
f 59/99/16 42/97/16 57/96/16
f 57/96/16 58/98/16 59/99/16
f 37/101/17 59/99/17 58/98/17
f 58/98/17 60/100/17 37/101/17
f 62/103/18 40/56/18 39/55/18
f 39/55/18 61/102/18 62/103/18
f 64/105/19 62/103/19 61/102/19
f 61/102/19 63/104/19 64/105/19
f 29/89/20 64/105/20 63/104/20
f 63/104/20 54/86/20 29/89/20
f 60/100/10 36/78/10 25/79/10
f 25/79/10 37/101/10 60/100/10
f 36/51/21 60/106/21 65/107/21
f 65/107/21 33/48/21 36/51/21
f 43/60/11 42/59/11 59/108/22
f 59/108/22 66/109/22 43/60/11
f 52/91/23 54/90/23 63/110/23
f 63/110/23 67/111/23 52/91/23
f 53/84/24 68/112/24 61/113/24
f 61/113/24 39/85/24 53/84/24
f 69/115/25 45/63/25 44/62/25
f 44/62/25 43/114/25 69/115/25
f 70/117/26 69/115/26 43/114/26
f 43/114/26 66/116/26 70/117/26
f 65/119/27 70/117/27 66/116/27
f 66/116/27 38/118/27 65/119/27
f 33/69/28 65/119/28 38/118/28
f 38/118/28 28/66/28 33/69/28
f 53/121/29 34/68/29 27/67/29
f 27/67/29 56/120/29 53/121/29
f 68/123/30 53/121/30 56/120/30
f 56/120/30 71/122/30 68/123/30
f 67/125/31 68/123/31 71/122/31
f 71/122/31 72/124/31 67/125/31
f 52/83/32 67/125/32 72/124/32
f 72/124/32 32/80/32 52/83/32
f 50/127/33 41/58/33 44/61/33
f 44/61/33 47/126/33 50/127/33
f 66/109/34 59/108/34 37/52/9
f 37/52/9 38/53/34 66/109/34
f 60/106/35 58/128/35 70/129/35
f 70/129/35 65/107/35 60/106/35
f 57/131/36 69/130/36 70/129/35
f 70/129/35 58/128/36 57/131/36
f 48/71/37 45/70/37 69/130/37
f 69/130/37 57/131/37 48/71/37
f 67/111/38 63/110/23 61/113/38
f 61/113/38 68/112/38 67/111/38
f 40/94/14 62/132/4 71/133/4
f 71/133/4 56/95/4 40/94/14
f 64/135/39 72/134/39 71/133/39
f 71/133/39 62/132/39 64/135/39
f 29/44/7 32/47/40 72/134/40
f 72/134/40 64/135/39 29/44/7
f 11/139/41 7/136/41 73/137/41
f 73/137/41 74/138/41 11/139/41
f 14/16/4 10/17/4 9/140/4
f 9/140/4 11/13/4 14/16/4
f 11/13/10 9/140/10 8/141/10
f 8/141/10 7/142/10 11/13/10
f 12/144/42 11/139/42 74/138/42
f 74/138/42 75/143/42 12/144/42
f 73/137/43 7/136/43 16/145/43
f 16/145/43 76/146/43 73/137/43
f 13/150/44 15/147/44 22/148/44
f 22/148/44 21/149/44 13/150/44
f 75/154/10 74/151/10 73/152/10
f 73/152/10 76/153/10 75/154/10
f 80/158/4 77/155/4 78/156/4
f 78/156/4 79/157/4 80/158/4
f 84/162/7 81/159/7 82/160/7
f 82/160/7 83/161/7 84/162/7
f 77/155/4 85/163/45 86/164/45
f 86/164/45 78/156/45 77/155/4
f 89/168/5 87/165/5 80/166/5
f 80/166/5 88/167/5 89/168/5
f 93/172/46 90/169/46 91/170/46
f 91/170/46 92/171/46 93/172/46
f 96/176/1 91/173/1 94/174/1
f 94/174/1 95/175/1 96/176/1
f 79/180/10 78/177/10 97/178/10
f 97/178/10 98/179/10 79/180/10
f 100/184/2 96/181/2 95/182/2
f 95/182/2 99/183/2 100/184/2
f 90/188/3 100/185/3 99/186/3
f 99/186/3 101/187/3 90/188/3
f 87/165/5 102/189/5 77/190/5
f 77/190/5 80/166/5 87/165/5
f 83/194/3 82/191/3 103/192/3
f 103/192/3 104/193/3 83/194/3
f 89/198/12 105/195/12 98/196/12
f 98/196/12 87/197/12 89/198/12
f 107/202/1 106/199/1 81/200/1
f 81/200/1 84/201/1 107/202/1
f 103/206/13 106/203/13 107/204/13
f 107/204/13 104/205/13 103/206/13
f 108/208/47 88/207/47 80/158/4
f 80/158/4 79/157/47 108/208/47
f 100/185/48 90/188/48 93/209/48
f 93/209/48 109/210/48 100/185/48
f 109/210/49 93/209/49 110/211/49
f 110/211/49 111/212/49 109/210/49
f 111/212/50 110/211/50 85/213/50
f 85/213/50 112/214/50 111/212/50
f 89/168/51 88/167/51 113/215/51
f 113/215/51 114/216/51 89/168/51
f 114/216/52 113/215/52 115/217/52
f 115/217/52 116/218/52 114/216/52
f 116/218/53 115/217/53 81/200/53
f 81/200/53 106/199/53 116/218/53
f 77/190/5 102/189/5 112/214/5
f 112/214/5 85/213/5 77/190/5
f 117/222/54 112/219/54 102/220/54
f 102/220/54 97/221/54 117/222/54
f 110/224/4 93/172/4 92/171/4
f 92/171/4 118/223/4 110/224/4
f 116/226/55 106/203/55 103/206/55
f 103/206/55 119/225/55 116/226/55
f 114/228/56 120/227/56 105/195/56
f 105/195/56 89/198/56 114/228/56
f 91/173/57 96/176/57 121/229/57
f 121/229/57 92/230/57 91/173/57
f 92/230/58 121/229/58 122/231/58
f 122/231/58 118/232/58 92/230/58
f 118/232/59 122/231/59 117/233/59
f 117/233/59 86/234/59 118/232/59
f 86/234/60 117/233/60 97/178/60
f 97/178/60 78/177/60 86/234/60
f 79/180/61 98/179/61 105/235/61
f 105/235/61 108/236/61 79/180/61
f 108/236/62 105/235/62 120/237/62
f 120/237/62 123/238/62 108/236/62
f 123/238/63 120/237/63 119/239/63
f 119/239/63 124/240/63 123/238/63
f 124/240/64 119/239/64 103/192/64
f 103/192/64 82/191/64 124/240/64
f 91/170/33 90/169/33 101/241/33
f 101/241/33 94/242/33 91/170/33
f 85/163/4 110/224/4 118/223/4
f 118/223/4 86/164/45 85/163/4
f 122/244/65 111/243/65 112/219/65
f 112/219/65 117/222/65 122/244/65
f 122/244/2 121/245/2 109/246/2
f 109/246/2 111/243/2 122/244/2
f 121/245/66 96/181/66 100/184/66
f 100/184/66 109/246/2 121/245/66
f 114/228/2 116/226/55 119/225/55
f 119/225/55 120/227/2 114/228/2
f 123/248/67 113/247/67 88/207/67
f 88/207/67 108/208/47 123/248/67
f 123/248/4 124/249/4 115/250/4
f 115/250/4 113/247/4 123/248/4
f 124/249/4 82/160/7 81/159/7
f 81/159/7 115/250/4 124/249/4
f 126/254/3 20/251/3 19/252/3
f 19/252/3 125/253/3 126/254/3
f 125/253/4 19/255/4 18/256/4
f 18/256/4 127/257/4 125/253/4
f 125/253/68 3/3/68 2/2/68
f 2/2/68 126/254/68 125/253/68
f 126/254/69 2/2/69 24/38/69
f 24/38/69 128/258/69 126/254/69
f 127/257/70 23/35/70 3/3/70
f 3/3/70 125/253/70 127/257/70
f 128/258/71 24/38/71 23/35/71
f 23/35/71 127/257/71 128/258/71
f 127/257/1 18/259/1 17/260/1
f 17/260/1 128/258/1 127/257/1
f 128/258/2 17/261/2 20/262/2
f 20/262/2 126/254/2 128/258/2
f 73/266/1 74/263/1 129/264/1
f 129/264/1 130/265/1 73/266/1
f 132/270/10 131/267/10 16/268/10
f 16/268/10 12/269/10 132/270/10
f 133/272/72 132/270/10 12/269/10
f 12/269/10 11/271/72 133/272/72
f 131/267/10 134/273/10 7/274/10
f 7/274/10 16/268/10 131/267/10
f 134/273/10 133/272/72 11/271/72
f 11/271/72 7/274/10 134/273/10
f 75/277/2 135/275/2 129/264/2
f 129/264/2 74/276/2 75/277/2
f 16/145/73 12/144/73 75/143/73
f 75/143/73 76/146/73 16/145/73
f 76/280/4 73/278/4 130/265/4
f 130/265/4 136/279/4 76/280/4
f 98/196/74 97/221/74 102/220/74
f 102/220/74 87/197/74 98/196/74
f 6/284/75 14/281/75 4/282/75
f 4/282/75 1/283/75 6/284/75
f 14/281/76 13/150/76 21/149/76
f 21/149/76 4/282/76 14/281/76
f 22/148/77 15/147/77 6/284/77
f 6/284/77 1/283/77 22/148/77
f 21/286/3 23/35/3 24/38/3
f 24/38/3 22/285/3 21/286/3
f 133/290/3 134/287/3 137/288/3
f 137/288/3 138/289/3 133/290/3
f 132/293/4 133/291/4 138/289/4
f 138/289/4 139/292/4 132/293/4
f 130/265/78 129/264/78 138/289/78
f 138/289/78 137/288/78 130/265/78
f 136/279/79 130/265/79 137/288/79
f 137/288/79 140/294/79 136/279/79
f 129/264/80 135/275/80 139/292/80
f 139/292/80 138/289/80 129/264/80
f 135/275/81 136/279/81 140/294/81
f 140/294/81 139/292/81 135/275/81
f 131/296/1 132/295/1 139/292/1
f 139/292/1 140/294/1 131/296/1
f 134/298/2 131/297/2 140/294/2
f 140/294/2 137/288/2 134/298/2
f 75/300/3 76/299/3 136/279/3
f 136/279/3 135/275/3 75/300/3
